<?xml version="1.0" encoding="utf-8"?>
<!-- Generator: Adobe Illustrator 28.2.0, SVG Export Plug-In . SVG Version: 6.00 Build 0)  -->
<svg version="1.1" id="Capa_1" xmlns="http://www.w3.org/2000/svg" xmlns:xlink="http://www.w3.org/1999/xlink" x="0px" y="0px"
	 viewBox="0 0 165.4 50" style="enable-background:new 0 0 165.4 50;" xml:space="preserve">
<style type="text/css">
	.st0{fill:#E31019;}
</style>
<g>
	<g>
		<path class="st0" d="M1.9,48.4c0-15.3,0-30.5,0-45.8c3.7,0,5.6,0,9.3-0.1c1.8,0,3.3,0.6,4.6,1.9c1.3,1.2,2.3,3,3,5.2s1,4.8,1,7.7
			c0,3-0.4,5.6-1.1,7.9c-0.7,2.3-1.7,4.2-3,5.7c-1.3,1.5-2.8,2.3-4.6,2.6c-1.4,0.2-2.1,0.4-3.4,0.6c0,5.1,0,7.6,0,12.7
			C5.4,47.5,4.2,47.8,1.9,48.4z M7.8,24.1c1-0.1,1.5-0.2,2.5-0.3c1.2-0.1,2.1-0.7,2.7-1.8c0.6-1,0.8-2.4,0.8-4.2c0-1.7-0.3-3-0.8-4
			c-0.6-0.9-1.5-1.3-2.7-1.3c-1,0.1-1.5,0.1-2.5,0.1C7.8,17.3,7.8,19.6,7.8,24.1z"/>
		<path class="st0" d="M34.1,42.6c-1.7,0.3-3.2,0-4.5-0.8c-1.4-0.8-2.6-2.1-3.6-3.8c-1-1.8-1.8-3.9-2.3-6.4
			c-0.5-2.5-0.8-5.3-0.8-8.4c0-3.1,0.3-5.9,0.8-8.6c0.6-2.6,1.3-4.9,2.4-6.9c1-1.9,2.2-3.4,3.6-4.5c1.4-1.1,2.9-1.6,4.6-1.6
			c1.7,0,3.2,0.5,4.5,1.5c1.4,1,2.6,2.4,3.6,4.2c1,1.8,1.8,3.9,2.3,6.2c0.5,2.4,0.8,5,0.8,7.8c0,2.8-0.3,5.4-0.8,7.9
			c-0.6,2.4-1.3,4.6-2.4,6.5c-1,1.9-2.2,3.5-3.6,4.7C37.2,41.6,35.7,42.3,34.1,42.6z M34.1,33.1c1.1-0.1,2-0.7,2.8-1.7
			c0.8-1,1.4-2.3,1.9-4c0.4-1.7,0.7-3.6,0.7-5.8c0-2.2-0.2-4.1-0.7-5.7c-0.4-1.6-1.1-2.9-1.9-3.7c-0.8-0.9-1.7-1.3-2.8-1.3
			c-1,0-2,0.5-2.8,1.5c-0.8,1-1.4,2.3-1.9,4c-0.4,1.7-0.7,3.7-0.7,6c0,2.3,0.2,4.2,0.7,5.9c0.4,1.6,1.1,2.9,1.9,3.7
			C32.1,32.9,33.1,33.3,34.1,33.1z"/>
		<path class="st0" d="M49.6,39.6c0-12.4,0.1-24.7,0.1-37.1c3.7,0,5.6,0,9.3,0c1.8,0,3.3,0.5,4.6,1.6c1.3,1.1,2.3,2.5,3,4.4
			c0.7,1.9,1.1,4.1,1,6.6c0,2.5-0.4,4.8-1.1,6.7c-0.7,2-1.7,3.5-3,4.6c-1.3,1.1-2.8,1.7-4.6,1.8c-1.4,0.1-2.1,0.1-3.5,0.2
			c0,4.2,0,6.3,0,10.5C53.1,39.2,51.9,39.3,49.6,39.6z M55.5,20.1c1,0,1.5-0.1,2.5-0.1c1.2,0,2.1-0.5,2.7-1.3c0.6-0.8,0.8-2,0.8-3.5
			c0-1.5-0.3-2.6-0.8-3.4c-0.6-0.8-1.5-1.2-2.7-1.1c-1,0-1.5,0-2.5,0.1C55.5,14.5,55.5,16.4,55.5,20.1z"/>
		<path class="st0" d="M70.6,20.2c0-3.6,0.5-6.8,1.4-9.6c0.9-2.8,2.2-5,3.8-6.6c1.6-1.6,3.5-2.4,5.6-2.4c2,0,3.7,0.6,5.1,1.8
			c1.4,1.2,2.5,2.9,3.3,4.9c0.8,2.1,1.3,4.3,1.6,6.8c-2.4,0-3.7,0-6.1,0c-0.2-1.5-0.6-2.6-1.2-3.6c-0.7-0.9-1.6-1.4-2.7-1.4
			c-1.4,0-2.6,0.9-3.4,2.7c-0.9,1.8-1.3,4.2-1.3,7.3c0,3,0.4,5.4,1.3,7.3c0.9,1.8,2,2.7,3.4,2.7c1.1,0,2-0.4,2.7-1.3
			c0.7-0.9,1.1-2,1.3-3.4c2.4,0,3.6,0,6,0.1c-0.2,2.4-0.7,4.7-1.6,6.7s-1.9,3.6-3.3,4.8c-1.4,1.2-3.1,1.8-5.1,1.8
			c-2.1,0-4-0.8-5.7-2.3c-1.6-1.6-2.9-3.7-3.8-6.5C71,27,70.6,23.8,70.6,20.2z"/>
		<path class="st0" d="M105.8,39.5c-1.7-0.1-3.2-0.7-4.6-1.7c-1.4-1-2.6-2.4-3.6-4.1c-1-1.7-1.8-3.7-2.4-6c-0.6-2.3-0.8-4.7-0.8-7.4
			c0-2.7,0.3-5.1,0.8-7.4c0.5-2.3,1.3-4.2,2.3-5.9c1-1.7,2.2-3,3.6-3.9c1.4-0.9,2.9-1.4,4.5-1.4c1.7,0,3.2,0.5,4.6,1.4
			c1.4,1,2.6,2.3,3.6,4.1c1,1.8,1.8,3.8,2.4,6.2c0.6,2.4,0.8,5,0.8,7.7c0,2.8-0.3,5.3-0.8,7.7c-0.5,2.3-1.3,4.3-2.3,6
			c-1,1.7-2.2,2.9-3.6,3.7C108.9,39.3,107.4,39.6,105.8,39.5z M105.7,30.7c1.1,0.1,2-0.3,2.8-1.1c0.8-0.8,1.4-2,1.9-3.5
			c0.4-1.5,0.7-3.3,0.7-5.4c0-2.1-0.2-3.9-0.7-5.5c-0.4-1.6-1.1-2.8-1.9-3.7c-0.8-0.9-1.7-1.3-2.8-1.3c-1,0-2,0.4-2.8,1.2
			c-0.8,0.8-1.4,2-1.9,3.5c-0.4,1.5-0.7,3.3-0.7,5.3c0,2,0.2,3.8,0.7,5.4c0.4,1.5,1.1,2.8,1.9,3.6C103.8,30.2,104.7,30.7,105.7,30.7
			z"/>
		<path class="st0" d="M121.3,40.1c0-12.5-0.1-25.1-0.1-37.6c3.9,0,5.8,0,9.7,0c1.7,0,3.2,0.6,4.4,1.7c1.3,1.2,2.3,2.8,3,4.9
			s1.1,4.6,1.1,7.3c0,2.7-0.3,5.1-1,7.1c-0.7,2-1.6,3.5-2.8,4.5c2.1,5.9,3.1,8.9,5.2,15.1c-2.6-0.5-4-0.7-6.6-1.2
			c-1.7-5.1-2.6-7.7-4.3-12.6c-1.1-0.1-1.6-0.2-2.7-0.3c0,4.7,0,7.1,0,11.8C124.8,40.6,123.6,40.4,121.3,40.1z M127.1,20.3
			c1.1,0.1,1.7,0.1,2.9,0.2c1.2,0.1,2-0.2,2.6-1c0.5-0.8,0.8-1.9,0.8-3.5c0-1.5-0.3-2.7-0.8-3.4c-0.5-0.7-1.4-1.1-2.6-1.2
			c-1.1,0-1.7-0.1-2.9-0.1C127.1,14.9,127.1,16.7,127.1,20.3z"/>
		<path class="st0" d="M144.2,43.8c0-13.8-0.1-27.5-0.1-41.3c2.3,0,3.4,0,5.7,0c3.5,9.9,5.2,15.1,8.6,26c0-10.4,0-15.6,0-25.9
			c2.2,0,3.4,0,5.6,0c0,15.3,0,30.5,0,45.8c-2.2-0.6-3.4-0.9-5.6-1.4c-2.7-9-5.6-17.9-8.6-26.8c0,9.9,0,14.9,0,24.8
			C147.6,44.5,146.4,44.3,144.2,43.8z"/>
	</g>
</g>
</svg>
